<svg width="14" height="14" viewBox="0 0 14 14" fill="none" xmlns="http://www.w3.org/2000/svg">
<g clip-path="url(#clip0_1_40)">
<path d="M10.532 4.8125C10.752 4.83831 10.9261 5.02425 10.9349 5.24825V11.3719C10.9305 12.0518 10.3469 12.6691 9.6399 12.6827C7.88465 12.6936 6.12896 12.6827 4.37371 12.6827C3.68771 12.6783 3.06777 12.0925 3.0634 11.3719V5.24825C3.07127 5.03913 3.22746 4.84881 3.43221 4.81644C3.6584 4.78056 3.89596 4.95031 3.93227 5.18C3.93709 5.21019 3.93665 5.21806 3.93796 5.24825C3.93796 7.29094 3.92484 9.33362 3.93796 11.3763C3.94234 11.6021 4.13484 11.8033 4.36934 11.8081C6.1224 11.8191 7.87546 11.8191 9.62852 11.8081C9.8569 11.8038 10.0586 11.6051 10.0603 11.3693V5.24825C10.0686 5.03781 10.2235 4.84881 10.4291 4.81644C10.4943 4.80594 10.5105 4.81163 10.532 4.8125ZM7.88946 5.68619C7.96909 5.69319 7.99052 5.7015 8.03252 5.719C8.17559 5.7785 8.2819 5.9185 8.2994 6.07381C8.30202 6.09569 8.30159 6.10094 8.30246 6.12281V9.6215C8.2994 9.72169 8.28627 9.7545 8.25915 9.81138C8.13009 10.0787 7.69784 10.1412 7.5084 9.87437C7.45634 9.80087 7.43009 9.71119 7.42746 9.6215V6.12281C7.43009 6.04319 7.43752 6.02087 7.4524 5.97844C7.50621 5.82444 7.6519 5.70675 7.81596 5.68837C7.86321 5.68313 7.87415 5.68575 7.88946 5.68619ZM6.15784 5.68619C6.23702 5.69319 6.2589 5.7015 6.30046 5.719C6.44352 5.77806 6.55027 5.9185 6.56777 6.07381C6.56996 6.09569 6.56996 6.10094 6.5704 6.12281V9.6215C6.56777 9.72169 6.55421 9.7545 6.52709 9.81138C6.39802 10.0787 5.96577 10.1412 5.77634 9.87437C5.72427 9.80087 5.69846 9.71119 5.69584 9.6215V6.12281C5.69802 6.04319 5.70546 6.02087 5.72034 5.97844C5.77415 5.82444 5.91984 5.70675 6.08434 5.68837C6.13159 5.68313 6.14252 5.68575 6.15784 5.68619ZM4.81252 3.06163V1.75C4.81471 1.66994 4.82215 1.64806 4.83702 1.60519C4.89084 1.45119 5.03652 1.33394 5.20102 1.31513C5.22246 1.31294 5.22815 1.31294 5.24959 1.3125H8.74827C8.75659 1.31294 8.76446 1.31294 8.77277 1.31338C8.8524 1.31994 8.87427 1.32869 8.91584 1.34575C9.05934 1.40525 9.16521 1.54525 9.18271 1.701C9.18534 1.72244 9.1849 1.72813 9.18577 1.75V3.06163H11.372L11.4105 3.06337C11.4437 3.06775 11.4525 3.06775 11.4853 3.0765C11.8103 3.16356 11.9149 3.69075 11.5907 3.878C11.5303 3.91256 11.4966 3.93094 11.372 3.93619H2.6259C2.59221 3.93487 2.58346 3.93575 2.54977 3.92963C2.20721 3.86925 2.06809 3.31625 2.40715 3.12025C2.46796 3.08525 2.50165 3.06731 2.6259 3.06163H4.81252ZM8.31077 3.06163V2.18706H5.68709V3.06163H8.31077Z" fill="black"/>
</g>
<defs>
<clipPath id="clip0_1_40">
<rect width="14" height="14" fill="white"/>
</clipPath>
</defs>
</svg>
