<svg width="16" height="16" viewBox="0 0 16 16" fill="none" xmlns="http://www.w3.org/2000/svg">
<path d="M8 0C6.41775 0 4.87103 0.469192 3.55544 1.34824C2.23985 2.22729 1.21447 3.47672 0.608967 4.93853C0.0034663 6.40034 -0.15496 8.00887 0.153721 9.56072C0.462403 11.1126 1.22433 12.538 2.34315 13.6569C3.46197 14.7757 4.88743 15.5376 6.43928 15.8463C7.99113 16.155 9.59966 15.9965 11.0615 15.391C12.5233 14.7855 13.7727 13.7602 14.6518 12.4446C15.5308 11.129 16 9.58225 16 8C16 5.87827 15.1571 3.84344 13.6569 2.34315C12.1566 0.842855 10.1217 0 8 0ZM11.4255 7.78909L8.51637 10.6982C8.3801 10.8336 8.19577 10.9097 8.00364 10.9097C7.8115 10.9097 7.62717 10.8336 7.49091 10.6982L4.58182 7.78909C4.46267 7.64996 4.40041 7.471 4.40749 7.28796C4.41456 7.10492 4.49043 6.93129 4.61996 6.80177C4.74948 6.67225 4.92311 6.59637 5.10614 6.5893C5.28918 6.58223 5.46815 6.64449 5.60727 6.76364L8 9.15636L10.3927 6.76364C10.5319 6.64449 10.7108 6.58223 10.8939 6.5893C11.0769 6.59637 11.2505 6.67225 11.38 6.80177C11.5096 6.93129 11.5854 7.10492 11.5925 7.28796C11.5996 7.471 11.5373 7.64996 11.4182 7.78909H11.4255Z" fill="black"/>
</svg>
