<svg width="22" height="19" viewBox="0 0 22 19" fill="none" xmlns="http://www.w3.org/2000/svg">
<path d="M14.1429 15.7143C15.0107 15.7143 15.7143 16.4178 15.7143 17.2857C15.7143 18.0916 15.1077 18.7558 14.3261 18.8466L14.1429 18.8571H1.57143C0.703552 18.8571 0 18.1536 0 17.2857C0 16.4798 0.606607 15.8156 1.38814 15.7248L1.57143 15.7143H14.1429ZM20.4286 7.85714C21.2964 7.85714 22 8.5607 22 9.42857C22 10.2345 21.3934 10.8987 20.6119 10.9895L20.4286 11H1.57143C0.703552 11 0 10.2964 0 9.42857C0 8.62269 0.606607 7.95847 1.38814 7.86769L1.57143 7.85714H20.4286ZM20.4286 0C21.2964 0 22 0.703552 22 1.57143C22 2.37731 21.3934 3.04153 20.6119 3.13231L20.4286 3.14286H1.57143C0.703552 3.14286 0 2.43931 0 1.57143C0 0.765544 0.606607 0.101324 1.38814 0.0105504L1.57143 0H20.4286Z" fill="white"/>
</svg>
