<svg width="30" height="25" viewBox="0 0 30 25" fill="none" xmlns="http://www.w3.org/2000/svg">
<path d="M29.2674 9.78344L27.4291 17.2229C26.9184 19.5669 25.1823 21.4013 22.9354 22.2166L18.544 23.8471C18.1355 23.9491 17.7269 23.8471 17.4206 23.5414L14.2546 20.0764C12.6206 18.3439 12.0078 15.8981 12.5184 13.5541L14.2546 6.11465C14.3567 5.70701 14.7652 5.29936 15.2759 5.29936C19.9738 5.29936 24.4674 6.42038 28.6546 8.4586C29.1652 8.86624 29.3695 9.37579 29.2674 9.78344ZM16.5014 14.7771C15.9908 16.7134 17.2163 18.6497 19.1567 19.0574C21.0972 19.5669 23.0376 18.344 23.4461 16.4076M24.6716 11.5159C23.8546 11.3121 23.0376 11.8217 22.8333 12.6369C22.6291 13.4522 23.1397 14.2675 23.9567 14.4713C24.7737 14.6752 25.5908 14.1656 25.795 13.3503C25.9993 12.535 25.4886 11.7197 24.6716 11.5159ZM17.7269 9.88535C16.9099 9.68153 16.0929 10.1911 15.8886 11.0064C15.6844 11.8217 16.195 12.6369 17.012 12.8408C17.829 13.0446 18.6461 12.535 18.8503 11.7197C19.0546 10.9045 18.544 10.0892 17.7269 9.88535ZM11.0886 18.9554L8.94396 18.4459C6.59502 17.8344 4.75673 16.1019 3.9397 13.8599L1.08013 5.70701C0.875875 5.29936 1.08013 4.78981 1.48864 4.48408C5.47162 1.93631 9.76098 0.407643 14.4589 0C14.9695 0 15.378 0.203822 15.4801 0.713376L16.5014 3.56688C16.0929 3.56688 15.6844 3.56688 15.2759 3.56688C13.8461 3.56688 12.6206 4.48408 12.3142 5.91083L11.1908 10.7006C11.0886 10.7006 10.9866 10.7006 10.8844 10.8025C9.04609 11.414 8.02481 13.4522 8.73971 15.3885L10.3737 14.7771C10.2716 16.1019 10.4759 17.5287 11.0886 18.9554ZM8.22907 8.86624C7.92268 8.05095 7.10566 7.64331 6.28864 7.94904C5.47162 8.15287 4.96098 9.07006 5.26736 9.88535C5.57375 10.7006 6.39077 11.1083 7.20779 10.8025C8.02481 10.4968 8.43332 9.68153 8.22907 8.86624Z" fill="#00485E"/>
</svg>
